<?xml version="1.0" encoding="UTF-8"?><svg id="Layer_1" xmlns="http://www.w3.org/2000/svg" viewBox="0 0 600 337.4"><defs><style>.cls-1{fill:#b89888;}.cls-2{fill:#662116;}.cls-3{fill:#515973;}.cls-4{fill:#434b61;}.cls-5{fill:#695146;}.cls-6{fill:#30364a;}.cls-7{fill:#c7412c;}.cls-8{fill:#f0e8e3;}.cls-9{fill:#fff;}.cls-10{fill:#474f66;}.cls-11{fill:#fa3;}.cls-12{fill:#ebd9d1;}.cls-13{fill:#e66b3e;}.cls-14{fill:#101421;}.cls-15{fill:#636d8c;}.cls-16{fill:#d6c0b6;}.cls-17{fill:#eb6955;}.cls-18{fill:#a83725;}.cls-19{fill:#f2907e;}.cls-20{fill:#e64a32;}.cls-21{fill:#d45c43;}.cls-22{fill:#ba472a;}.cls-23{fill:#ff964b;}.cls-24{fill:#b04328;}</style></defs><rect class="cls-9" width="600" height="337.4" transform="translate(600 337.4) rotate(180)"/><path class="cls-21" d="M78.65,178.34l16.34-23.51s28.46,8.37,31.37,11.01c1.84,1.67,10.09,13.48,16.37,22.2,3.65,5.07,6.94,9.08,7.14,9.5.64,1.36,1.13,7.37-7.01,8.56-5.99.88-16.84-6.6-24.93-13.15-13.73-4.85-39.29-14.62-39.29-14.62Z"/><path class="cls-21" d="M69.87,187.07l21.11-19.35s25.92,14.42,28.19,17.64c1.43,2.04,6.88,15.37,11.1,25.26,2.45,5.75,4.77,10.38,4.87,10.83.32,1.46-.55,7.79-8.72,6.81-6-.52-15.96-14.71-22.42-22.88-12.33-7.75-34.13-18.31-34.13-18.31Z"/><path class="cls-21" d="M92.96,210.52s7.38,19.51,14.68,23.29c7.3,3.78,12.7-.07,12.92-1.66.22-1.59-8.93-38.11-8.93-38.11l-18.67,16.48Z"/><path class="cls-21" d="M113.19,174.73c8.5,3.06,8.18,31.41,8.18,31.41l-26.29,21.76s-32.99,42.58-40.96,43.14c-7.97.56-6.03-25.88-6.03-25.88l4.93-77.21s51.67,3.73,60.18,6.79Z"/><path class="cls-19" d="M0,242.27v80.65c12.78-13.08,40.61-43.32,45.27-46.43,5.48-3.67,18.33-7.36,22.53-12.31l-2.23-56.84c3.24-4.04,26.79-32.85,27.98-33.69.93-.65,13.63-3.35,20.53-4.78,1.79-.38,3.18-.66,3.89-.81.33-.06.51-.1.51-.1,0,0,1.9.45,4.85,1.13,3.66.85,8.92,2.06,14.16,3.25,2.45.55,4.89,1.1,7.16,1.6.42.09.83.18,1.23.27,4.04.88,7.41,1.58,9.07,1.85,5.46.87,16.62-8.49,13.7-11.26-.31-.3-1.9-1.07-4.23-2.11-.37-.17-.76-.33-1.16-.51-1.91-.84-4.19-1.82-6.62-2.85-4.26-1.81-8.97-3.79-12.94-5.51-1.73-.75-3.33-1.45-4.68-2.06-.14-.06-.27-.12-.4-.18-.58-.26-1.14-.52-1.69-.76-9.66-4.33-15.06-6.09-18.79-6.7-3.94-.64-34.52,3.41-36.71,5.11-.71.55-34.18,20.64-36.16,23.4-2.2,3.09-28.57,53.95-32.38,58.05-1.61,1.74-6.57,6.15-12.89,11.59Z"/><path class="cls-21" d="M119.25,167.3c-.16,0-.32-.05-.46-.15-.33-.25-.4-.73-.15-1.06,2.3-3.05,3.6-6.21,3.97-9.68.05-.42.42-.72.84-.67.42.05.72.42.67.84-.41,3.75-1.81,7.16-4.27,10.43-.15.2-.38.3-.61.3Z"/><path class="cls-21" d="M93.67,174.15c-.39,0-.72-.3-.75-.69-.38-4.35-1.02-7.07-3.57-10.77-.24-.34-.15-.82.19-1.06.34-.24.82-.15,1.06.19,2.73,3.95,3.44,6.97,3.84,11.5.04.42-.27.79-.69.82-.02,0-.05,0-.07,0Z"/><path class="cls-21" d="M68.62,199.52c-.4,0-.74-.31-.77-.72-.36-5.28,1.42-12.79,1.5-13.1.1-.41.52-.67.93-.57.41.1.67.52.57.93-.02.08-1.81,7.6-1.46,12.64.03.42-.29.79-.72.82-.02,0-.04,0-.05,0Z"/><path class="cls-3" d="M67.31,325.5c-1.59,4.06-3.46,8.02-5.53,11.9h26.95c.44-1.03.86-2.06,1.27-3.1.53-1.33.98-2.69,1.47-4.04.49-1.35.96-2.71,1.35-4.1l1.22-4.13,1.03-4.03c1.32-5.37,2.42-10.78,3.26-16.2.88-5.41,1.53-10.83,2.01-16.18,2.05-21.45,1.39-42.09,6.01-59.7,2.23-8.84,5.97-16.82,11.04-24.2,2.56-3.68,5.51-7.15,8.65-10.51,1.67-1.62,3.22-3.32,5.01-4.86l2.61-2.37,2.82-2.33c3.07-2.61,6.2-5.1,9.4-7.44,5.94-4.36,12.12-8.23,18.53-11.52,6.9-3.55,14.05-6.44,21.47-8.55,9.01-2.59,18.41-4.1,28.16-4.86,2.46-.15,4.89-.35,7.36-.47l4.92-.19c.82-.04,1.65-.07,2.48-.08,3.33-.06,6.66-.14,10.04-.14v-.99s-.05-8.1-.05-8.1l-.05-8.97-.03-4.27v-2c-3.48,0-7.01.08-10.53.14-.88.01-1.77.04-2.66.08l-5.31.22c-2.7.12-5.42.34-8.13.51-10.87.85-22.01,2.59-32.89,5.72-10.88,3.11-21.42,7.61-31.18,13.15-2.39,1.44-4.85,2.81-7.19,4.32l-3.89,2.61-3.04,2.03-6.63,4.95-1.65,1.25-1.58,1.31-3.16,2.61-3.16,2.63-3.14,2.83c-.16.14-.33.29-.49.44-1.94,1.74-3.76,3.67-5.62,5.51-3.93,4.19-7.69,8.62-11.05,13.44-3.33,4.83-6.29,9.99-8.75,15.37-2.48,5.37-4.41,10.98-5.85,16.58-2.92,11.24-4.02,22.38-4.71,32.95-.69,10.59-1.06,20.77-1.99,30.65-.45,4.94-1.04,9.8-1.81,14.6-.74,4.81-1.71,9.54-2.86,14.21l-.89,3.49-.98,3.3c-.31,1.11-.69,2.2-1.08,3.28-.4,1.08-.75,2.18-1.18,3.25Z"/><path class="cls-10" d="M81.51,337.4h6.15c.98-2.3,1.89-4.63,2.7-7,.92-2.43,1.63-4.93,2.37-7.42.39-1.26.67-2.46.99-3.68l.91-3.65c2.25-9.76,3.77-19.65,4.65-29.39.95-9.75,1.34-19.35,1.9-28.6.55-9.27,1.28-18.18,2.96-26.55.85-4.18,1.93-8.22,3.28-12.12,1.37-3.88,3.07-7.6,5.03-11.19,1.93-3.6,4.31-6.98,6.82-10.29,1.34-1.61,2.6-3.27,4.06-4.8.72-.78,1.4-1.58,2.15-2.34l2.26-2.26,1.14-1.13,1.19-1.09,2.4-2.17c1.65-1.44,3.41-2.85,5.12-4.28l2.57-2.14,2.66-1.99,1.83-1.37.82-.62c.89-.66,1.76-1.35,2.69-1.94l5.47-3.66c1.84-1.16,3.74-2.23,5.6-3.35l1.41-.83c.47-.27.96-.5,1.44-.75l1.18-.61,1.7-.88c.97-.48,1.91-1.02,2.9-1.45l2.95-1.3c7.88-3.47,16.1-6.02,24.62-7.72,8.53-1.71,17.36-2.59,26.4-3.03l5.55-.22,2.28-.05c3.04-.06,6.09-.12,9.17-.12l-.04-8.1c-2.7.74-7.29,1.37-12.97,1.98l-.31.04-1.62.08c-1.08.06-2.17.11-3.27.17-2.19.14-4.38.34-6.61.51-4.44.41-8.95.93-13.48,1.69-9.07,1.49-18.27,3.86-27.29,7.46-5.63,2.23-11.18,4.95-16.61,8.09-3.29,1.88-6.53,3.93-9.72,6.12-1.06.73-2.14,1.43-3.19,2.18-1.03.78-2.07,1.57-3.1,2.35-1.04.78-2.09,1.56-3.12,2.36-1.05.81-2.07,1.63-3.06,2.49-2,1.71-4.1,3.36-6.04,5.12-.96.88-1.92,1.77-2.89,2.65-.97.89-1.85,1.84-2.78,2.76-7.39,7.4-13.56,15.95-17.85,25.46-4.32,9.5-6.6,19.96-7.81,30.78-1.22,10.83-1.56,22.03-2.33,33.28-.73,11.25-1.98,22.59-4.22,33.62-.27,1.38-.6,2.75-.9,4.12-.29,1.37-.62,2.73-.98,4.08-.36,1.36-.67,2.71-1.06,4.06-.41,1.36-.82,2.72-1.23,4.07-1.43,4.29-2.99,8.52-4.84,12.57Z"/><path class="cls-15" d="M64.05,337.4h4.82c.06-.12.12-.23.18-.35,1.94-4.03,3.79-8.11,5.22-12.34.79-2.08,1.39-4.23,2.03-6.37.34-1.05.6-2.17.88-3.27l.83-3.31c2.04-8.89,3.44-17.93,4.28-27.13.89-9.19,1.28-18.52,1.85-28,.57-9.48,1.33-19.17,3.26-28.89.99-4.85,2.27-9.69,3.92-14.43,1.68-4.74,3.77-9.35,6.19-13.77,2.4-4.44,5.29-8.57,8.31-12.55,1.59-1.93,3.13-3.91,4.83-5.71.84-.92,1.66-1.86,2.52-2.75l2.63-2.62,1.32-1.31,1.36-1.24,2.73-2.48c.7-.61,1.41-1.21,2.12-1.79,1.16-.97,2.32-1.91,3.47-2.88l2.79-2.32,2.92-2.19,2.92-2.19c.98-.72,1.93-1.47,2.96-2.13,1.74-1.23,3.51-2.42,5.31-3.56,6.44-4.15,13.23-7.8,20.27-10.91,9.01-3.97,18.51-6.91,28.13-8.82,9.62-1.93,19.33-2.88,28.94-3.34l5.85-.23,2.37-.05c3.17-.07,6.34-.13,9.48-.13l-.03-4.27c-3.15,0-6.35.06-9.55.13l-2.39.05-5.94.24c-9.74.46-19.67,1.42-29.57,3.41-9.89,1.97-19.71,5-29.01,9.1-8.14,3.59-15.93,7.89-23.23,12.76-1.03.7-2.06,1.4-3.07,2.12-1.06.67-2.03,1.44-3.03,2.18l-2.99,2.24-2.98,2.24-2.86,2.36c-1.9,1.59-3.8,3.12-5.69,4.77l-.43.39-2.39,2.17-1.41,1.28-1.36,1.35-2.72,2.72c-.89.91-1.74,1.89-2.61,2.84-1.77,1.87-3.37,3.93-5.02,5.94-3.16,4.14-6.17,8.46-8.69,13.11-2.53,4.63-4.73,9.46-6.48,14.42-1.72,4.96-3.05,9.99-4.07,15.01-2.01,10.05-2.77,19.94-3.34,29.47-.57,9.55-.96,18.81-1.84,27.86-.83,9.06-2.2,17.89-4.19,26.55-1.98,9.36-5.34,18.26-9.8,26.62Z"/><path class="cls-6" d="M238.7,124.07c-2.26.01-4.03,5.47-3.95,12.19.08,6.71,1.91,12.16,4.09,12.15,2.18-.01,3.94-5.47,3.95-12.19,0-6.72-1.82-12.16-4.09-12.15Z"/><path class="cls-4" d="M119.52,199.01c-2.05,2.1-4.98,6.97-6.9,10.54l-14.55,13.36c-4.77,16.39-11.36,33.54-20.27,45.41l1.33-24.16,15.3-32.78,19.28-13.11,5.81.74Z"/><path class="cls-19" d="M100.37,179.32c4.04-1.67,12.19-3.48,12.19-3.48,0,0,14.37-7.54,16.57-7.45,2.25.09,15.39,4.66,9.63,15.64-6.46,12.72-24.84,17.94-24.84,17.94,0,0-17.71,17.84-19.36,20.14-1.07,1.49-11.67,29.39-16.84,36.04-3.82,4.9-19.95,13.48-32.44,18.35l13.35-70.64c4.53-3.14,32.48-22.69,41.74-26.53Z"/><path class="cls-21" d="M128.81,183.98c-.06,0-.11,0-.17-.02-.19-.05-.34-.17-.43-.34-1.89-3.67-6.42-7.23-9.73-8.71-.24-.11-.4-.34-.4-.61,0-.26.15-.5.39-.62l9.48-4.45c.1-.05.2-.06.31-.06,2.97.12,8.87,3.1,9.55,8.36.03.25-.08.5-.29.64l-8.33,5.69c-.11.08-.25.12-.38.12ZM120.3,174.31c3.16,1.72,6.8,4.75,8.74,8.03l7.37-5.03c-.79-3.96-5.48-6.58-8.04-6.78l-8.07,3.79Z"/><path class="cls-21" d="M112.17,192.86c-.34,0-.65-.22-.74-.56-1.7-6.13-4.65-9.85-8.77-11.08-.41-.12-.64-.55-.52-.96.12-.41.55-.64.96-.52,4.65,1.39,7.96,5.47,9.81,12.14.11.41-.13.84-.54.95-.07.02-.14.03-.21.03Z"/><path class="cls-21" d="M60.41,204.73c-.25,0-.49-.12-.64-.34-.24-.35-.14-.83.21-1.07.08-.05,7.75-5.16,17.12-11.29.36-.23.83-.13,1.07.22.23.36.13.83-.22,1.07-9.37,6.13-17.04,11.23-17.11,11.28-.13.09-.28.13-.43.13Z"/><path class="cls-14" d="M239.06,127.17c-1.72,0-3.11,4-3.11,8.93s1.39,8.93,3.11,8.93,3.11-4,3.11-8.93-1.39-8.93-3.11-8.93Z"/><path class="cls-12" d="M261.72,144.36h-22.58c-1.51,0-2.73-3.7-2.73-8.25s1.22-8.25,2.73-8.25h22.58v16.51Z"/><path class="cls-16" d="M236.53,138.39c.23,2.38.8,4.33,1.53,5.3h23.66v-5.5c-8.86,2.41-14.73,2.42-25.2.2Z"/><path class="cls-8" d="M261.72,132.11h-24.96c.21-1.17.52-2.16.89-2.9h24.07v2.9Z"/><ellipse class="cls-1" cx="261.72" cy="136.1" rx="2.73" ry="8.25"/><path class="cls-5" d="M261.78,130.81c-.88,0-1.6,2.37-1.6,5.3s.72,5.3,1.6,5.3,1.6-2.37,1.6-5.3-.72-5.3-1.6-5.3Z"/><path class="cls-13" d="M295.44,124.51l-.87.52c-4.8,2.83-10.14,4.75-15.57,6.15-5.44,1.35-11.05,2.21-16.63,2.21h-.63c-.13,0-.25.33-.26.74-.01.41.09.74.23.74h.65c5.76,0,11.45-.88,17.01-2.26,5.54-1.43,10.98-3.38,15.96-6.32l.9-.54-.79-1.25Z"/><path class="cls-22" d="M295.77,125.04l-.25-.4-.87.52c-4.82,2.84-10.17,4.77-15.61,6.17-5.46,1.35-11.07,2.22-16.67,2.22h-.78c-.05.11-.09.28-.1.47h.88c5.66,0,11.3-.87,16.79-2.23,5.47-1.41,10.86-3.35,15.74-6.22l.88-.53Z"/><path class="cls-23" d="M296.02,125.44l-.89.54c-4.94,2.91-10.35,4.85-15.86,6.27-5.52,1.37-11.19,2.24-16.91,2.25h-.86c.02.1.04.19.07.26h.78c5.75,0,11.43-.88,16.98-2.25,5.53-1.43,10.96-3.37,15.93-6.3l.9-.54-.14-.22Z"/><path class="cls-24" d="M296.23,125.76c-.12.07-.39-.15-.61-.5-.22-.35-.3-.68-.19-.75.11-.07.39.16.61.5.22.34.31.68.19.75Z"/><path class="cls-13" d="M296.76,149.09l-.97.09c-2.92.18-5.85-.59-8.6-1.73-2.77-1.15-5.4-2.66-7.99-4.26-2.6-1.59-5.16-3.28-7.86-4.79-2.7-1.49-5.56-2.93-8.82-3.3l-.68-.05c-.15,0-.27.31-.28.72,0,.41.09.75.21.76l.59.04c2.87.32,5.62,1.67,8.25,3.12,2.64,1.48,5.19,3.16,7.81,4.76,2.62,1.61,5.31,3.16,8.2,4.36,2.88,1.19,6.02,2.03,9.25,1.84.36-.02.72-.07,1.08-.1l-.19-1.47Z"/><path class="cls-22" d="M296.84,149.71l-.06-.46-.98.1c-2.95.18-5.9-.6-8.67-1.74-2.78-1.15-5.42-2.67-8.01-4.27-2.6-1.59-5.16-3.28-7.86-4.79-2.69-1.48-5.55-2.91-8.76-3.28l-.83-.06c-.05.11-.09.27-.11.46l.88.06c3.09.36,5.91,1.76,8.58,3.23,2.67,1.5,5.23,3.19,7.84,4.78,2.6,1.6,5.26,3.13,8.08,4.3,2.81,1.16,5.83,1.96,8.87,1.78l1.02-.1Z"/><path class="cls-23" d="M296.9,150.18c-.35.03-.7.08-1.05.1-3.15.19-6.24-.64-9.08-1.81-2.86-1.19-5.53-2.73-8.15-4.33-2.62-1.6-5.17-3.28-7.83-4.77-2.64-1.46-5.43-2.83-8.39-3.17l-.82-.06c.02.11.04.2.07.27l.73.05c2.9.33,5.66,1.68,8.3,3.14,2.64,1.48,5.2,3.16,7.82,4.77,2.62,1.6,5.3,3.16,8.18,4.35,2.87,1.19,6,2.02,9.2,1.83.36-.02.71-.07,1.07-.1l-.03-.26Z"/><path class="cls-24" d="M296.95,150.56c-.14.01-.29-.3-.34-.71-.04-.41.02-.75.15-.76.13-.01.28.31.34.71.06.41,0,.75-.15.76Z"/><path class="cls-13" d="M294.43,131.71l-1,.19c-5.14.99-10.43,1.09-15.7.8-5.28-.27-10.55-.92-15.91-1.11l-.64-.02c-.14,0-.26.32-.27.73,0,.41.09.75.22.75l.63.02c5.26.19,10.55.84,15.89,1.11,5.33.29,10.75.19,16.06-.83l1.03-.2-.31-1.45Z"/><path class="cls-22" d="M294.56,132.32l-.1-.46-1,.19c-5.16.99-10.46,1.1-15.74.81-5.28-.27-10.56-.92-15.91-1.11l-.79-.03c-.05.11-.09.28-.1.46l.88.03c5.32.2,10.6.85,15.9,1.11,5.29.29,10.64.19,15.85-.81l1.01-.2Z"/><path class="cls-23" d="M294.66,132.78l-1.02.2c-5.26,1.01-10.65,1.11-15.96.82-5.32-.27-10.6-.92-15.89-1.11l-.85-.03c.02.11.04.2.07.26l.77.03c5.27.19,10.56.84,15.89,1.11,5.32.29,10.73.19,16.03-.83l1.02-.2-.05-.25Z"/><path class="cls-24" d="M294.74,133.16c-.14.03-.31-.28-.4-.68-.08-.4-.04-.75.09-.77.13-.03.31.28.4.68.09.4.05.75-.09.77Z"/><path class="cls-13" d="M295.16,137.83l-1,.2c-5.24,1.04-10.61,1.42-15.98,1.46-5.38.05-10.76-.25-16.18-.4l-.64-.02c-.14,0-.25.33-.26.73,0,.41.09.74.23.75l.64.02c10.74.34,21.72,1.09,32.49-1.08l1.02-.2-.31-1.45Z"/><path class="cls-22" d="M295.29,138.44l-.1-.46-1,.2c-5.25,1.04-10.63,1.42-16.01,1.46-5.38.05-10.77-.25-16.18-.4l-.79-.02c-.05.11-.09.28-.1.47l.88.02c5.4.16,10.8.45,16.2.4,5.4-.03,10.8-.42,16.1-1.47l1.01-.2Z"/><path class="cls-23" d="M295.39,138.91l-1.02.2c-5.33,1.06-10.77,1.44-16.18,1.48-5.42.05-10.82-.25-16.22-.4l-.85-.02c.02.11.04.2.07.26l.77.02c10.75.34,21.71,1.08,32.46-1.08l1.02-.2-.05-.25Z"/><path class="cls-24" d="M295.47,139.28c-.13.03-.31-.28-.4-.68-.08-.4-.05-.75.08-.77.13-.03.31.28.4.68.09.4.05.75-.08.77Z"/><path class="cls-13" d="M300.93,133.91l-1.05-.02c-3.5-.04-6.95.22-10.4.55-3.44.33-6.87.75-10.29,1.17l-10.25,1.27c-1.71.19-3.41.38-5.12.52l-1.28.11-1.11.07-.58.03c-.13,0-.23.35-.21.76.02.41.14.73.28.73l.59-.03,1.14-.07,1.3-.11c1.73-.14,3.45-.33,5.16-.53l10.26-1.27c3.42-.43,6.83-.84,10.25-1.17,3.41-.32,6.84-.58,10.23-.54l1.01.02.06-1.48Z"/><path class="cls-22" d="M300.9,134.54l.02-.47-1.04-.02c-12.98.08-25.64,2.8-38.39,3.68l-.78.05c-.04.12-.07.28-.07.47l.87-.05c12.8-.89,25.46-3.6,38.35-3.68l1.03.02Z"/><path class="cls-23" d="M300.88,135.01l-1.02-.02c-6.39-.03-12.78.78-19.15,1.54-6.38.77-12.73,1.72-19.17,2.14l-.86.05c.02.1.06.19.09.26l.78-.05c6.46-.42,12.82-1.38,19.19-2.14,6.36-.76,12.75-1.57,19.11-1.54l1.02.02v-.26Z"/><path class="cls-24" d="M300.87,135.39c-.13,0-.23-.34-.22-.75s.13-.74.27-.74c.14,0,.23.34.22.75-.02.41-.14.74-.27.74Z"/><path class="cls-13" d="M288.74,130.23l-.67.71c-1.55,1.61-3.53,2.74-5.7,3.32-2.17.6-4.48.71-6.79.63-4.64-.17-9.29-1.11-14.09-1.32l-.65-.03c-.14,0-.26.32-.27.73,0,.41.09.75.22.75l.63.03c4.64.2,9.29,1.14,14.1,1.32,2.4.08,4.85-.03,7.24-.68,2.38-.64,4.64-1.92,6.37-3.71l.74-.79-1.13-.96Z"/><path class="cls-22" d="M289.22,130.63l-.36-.3-.68.72c-1.57,1.62-3.58,2.77-5.77,3.36-2.19.6-4.52.72-6.84.64-4.66-.17-9.31-1.11-14.09-1.32l-.8-.04c-.05.11-.09.27-.1.46l.88.04c4.73.21,9.38,1.15,14.09,1.32,2.35.08,4.72-.03,6.98-.65,2.26-.61,4.36-1.8,5.98-3.48l.7-.75Z"/><path class="cls-23" d="M289.59,130.94l-.72.77c-1.68,1.74-3.87,2.99-6.2,3.61-2.33.64-4.75.75-7.13.67-4.76-.18-9.41-1.12-14.1-1.32l-.84-.04c.02.11.04.2.07.26l.76.04c4.65.2,9.31,1.14,14.1,1.32,2.39.08,4.83-.03,7.2-.68,2.37-.63,4.6-1.9,6.31-3.68l.74-.79-.2-.17Z"/><path class="cls-24" d="M289.88,131.19c-.1.11-.43-.03-.73-.3-.31-.27-.49-.57-.4-.66.09-.09.42.04.73.3s.5.55.4.66Z"/><path class="cls-13" d="M291.11,144.74l-.95-.39c-4.61-1.91-9.23-3.87-14-5.49-4.76-1.61-9.7-2.91-14.81-3.19l-.65-.03c-.14,0-.26.32-.27.73,0,.41.09.75.22.75l.62.03c4.89.26,9.72,1.52,14.4,3.11,4.7,1.59,9.28,3.54,13.91,5.46l.95.39.56-1.37Z"/><path class="cls-22" d="M290.87,145.32l.18-.43-.95-.39c-4.61-1.91-9.23-3.87-13.99-5.49-4.75-1.61-9.68-2.91-14.76-3.18l-.8-.04c-.05.11-.09.27-.1.46l.88.05c5.01.27,9.91,1.56,14.64,3.16,4.74,1.61,9.34,3.57,13.96,5.47l.95.39Z"/><path class="cls-23" d="M290.69,145.76l-.95-.39c-4.62-1.91-9.21-3.86-13.93-5.46-4.71-1.6-9.56-2.87-14.51-3.13l-.84-.05c.02.11.04.2.07.26l.76.04c4.91.26,9.74,1.53,14.44,3.12,4.7,1.6,9.29,3.55,13.92,5.46l.95.39.1-.24Z"/><path class="cls-24" d="M290.55,146.11c-.13-.05-.1-.4.05-.78.16-.38.38-.64.51-.59.12.05.1.4-.05.78-.15.38-.38.65-.51.59Z"/><path class="cls-21" d="M521.35,178.34l-16.34-23.51s-28.46,8.37-31.37,11.01c-1.84,1.67-10.09,13.48-16.37,22.2-3.65,5.07-6.94,9.08-7.14,9.5-.64,1.36-1.13,7.37,7.01,8.56,5.99.88,16.84-6.6,24.93-13.15,13.73-4.85,39.29-14.62,39.29-14.62Z"/><path class="cls-21" d="M530.13,187.07l-21.11-19.35s-25.92,14.42-28.19,17.64c-1.43,2.04-6.88,15.37-11.1,25.26-2.45,5.75-4.77,10.38-4.87,10.83-.32,1.46.55,7.79,8.72,6.81,6-.52,15.96-14.71,22.42-22.88,12.33-7.75,34.13-18.31,34.13-18.31Z"/><path class="cls-21" d="M507.04,210.52s-7.38,19.51-14.68,23.29-12.7-.07-12.92-1.66,8.93-38.11,8.93-38.11l18.67,16.48Z"/><path class="cls-21" d="M486.82,174.73c-8.5,3.06-8.18,31.41-8.18,31.41l26.29,21.76s32.99,42.58,40.96,43.14c7.97.56,6.03-25.88,6.03-25.88l-4.93-77.21s-51.67,3.73-60.18,6.79Z"/><path class="cls-19" d="M444.72,176.64c1.76-.28,5.44-1.09,9.82-2.11.41-.09.81-.19,1.22-.29,2.25-.52,4.65-1.1,7.04-1.67,5.2-1.25,10.37-2.53,13.96-3.42,2.9-.72,4.76-1.19,4.76-1.19,0,0,.18.04.51.1.71.15,2.1.43,3.89.81,6.91,1.43,19.61,4.13,20.53,4.78,1.2.84,24.74,29.65,27.98,33.69l-2.23,56.84c4.2,4.95,17.05,8.64,22.53,12.31,4.66,3.11,32.49,33.35,45.27,46.43v-80.65c-6.32-5.44-11.28-9.85-12.89-11.59-3.81-4.1-30.17-54.96-32.38-58.05-1.97-2.76-35.44-22.85-36.16-23.4-2.19-1.7-32.77-5.75-36.71-5.11-3.72.61-9.13,2.37-18.79,6.7-.55.24-1.11.5-1.69.76-.13.06-.26.12-.4.18-1.35.61-2.95,1.31-4.68,2.06-3.97,1.72-8.68,3.7-12.93,5.51-2.43,1.03-4.72,2.01-6.63,2.85-.4.18-.79.34-1.15.51-2.34,1.04-3.93,1.81-4.24,2.11-2.91,2.77,7.92,12.72,13.37,11.84Z"/><path class="cls-21" d="M480.75,167.3c-.23,0-.46-.1-.61-.3-2.47-3.27-3.86-6.68-4.27-10.43-.05-.42.25-.79.67-.84.4-.04.79.26.84.67.38,3.47,1.68,6.64,3.97,9.68.25.33.19.81-.15,1.06-.14.1-.3.15-.46.15Z"/><path class="cls-21" d="M506.33,174.15s-.05,0-.07,0c-.42-.04-.73-.41-.69-.82.4-4.52,1.1-7.54,3.84-11.5.24-.34.71-.43,1.06-.19.34.24.43.71.19,1.06-2.56,3.7-3.19,6.42-3.57,10.77-.04.39-.37.69-.75.69Z"/><path class="cls-21" d="M531.38,199.52s-.04,0-.05,0c-.42-.03-.75-.4-.72-.82.35-5.04-1.44-12.56-1.46-12.64-.1-.41.16-.83.57-.93.41-.1.83.15.93.57.08.32,1.87,7.83,1.5,13.11-.03.41-.37.72-.77.72Z"/><path class="cls-20" d="M361.16,148.4c3.39,0,6.71.08,10.04.14.84,0,1.66.04,2.48.08l4.92.19c2.48.12,4.91.32,7.36.47,9.75.76,19.15,2.27,28.16,4.86,7.42,2.11,14.57,5,21.47,8.55,6.56,3.37,12.88,7.35,18.95,11.84,3.06,2.25,6.05,4.62,8.98,7.12l2.82,2.33,2.61,2.37c1.79,1.54,3.34,3.24,5.01,4.86,3.14,3.36,6.09,6.83,8.65,10.51,5.07,7.38,8.81,15.36,11.04,24.2,4.62,17.61,3.97,38.25,6.01,59.7.48,5.35,1.14,10.77,2.01,16.18.84,5.42,1.94,10.83,3.27,16.2l1.02,4.03,1.23,4.13c.21.69.4,1.39.63,2.07l.71,2.03c.49,1.34.94,2.71,1.47,4.04.41,1.04.83,2.07,1.27,3.1h26.95c-2.07-3.88-3.94-7.84-5.53-11.9-.43-1.07-.78-2.17-1.17-3.25l-.58-1.63c-.19-.54-.33-1.1-.5-1.65l-.99-3.3-.88-3.49c-1.16-4.67-2.12-9.4-2.87-14.21-.77-4.8-1.36-9.66-1.81-14.6-.93-9.88-1.3-20.06-1.99-30.65-.69-10.57-1.79-21.71-4.7-32.95-1.45-5.6-3.37-11.21-5.85-16.58-2.46-5.38-5.43-10.54-8.76-15.37-3.36-4.82-7.12-9.25-11.05-13.44-1.86-1.84-3.68-3.77-5.62-5.51-.16-.15-.33-.3-.49-.44l-3.14-2.83-3.16-2.63-3.16-2.61-1.58-1.31-1.65-1.25-6.63-4.95-3.04-2.03-3.89-2.61c-2.34-1.51-4.79-2.88-7.19-4.32-9.76-5.54-20.3-10.04-31.18-13.15-10.88-3.13-22.02-4.87-32.89-5.72-2.71-.17-5.43-.39-8.12-.51l-5.32-.22c-.89-.04-1.78-.07-2.66-.08-3.52-.06-7.05-.15-10.52-.14v2s-.04,4.27-.04,4.27l-.09,17.07v.99Z"/><path class="cls-7" d="M361.17,147.41c3.09,0,6.13.06,9.17.12l2.28.05,5.55.22c9.04.44,17.87,1.32,26.4,3.03,8.52,1.7,16.74,4.25,24.62,7.72l2.96,1.3c.98.43,1.92.97,2.89,1.45l1.7.88,1.18.61c.48.25.97.48,1.44.75l1.41.83c1.86,1.12,3.76,2.19,5.61,3.35l5.46,3.66c.93.59,1.8,1.28,2.69,1.94l1.23.92,1.42,1.07,2.66,1.99,2.58,2.14c1.7,1.43,3.46,2.84,5.12,4.28l2.39,2.17,1.2,1.09,1.13,1.13,2.26,2.26c.75.76,1.43,1.56,2.15,2.34,1.46,1.53,2.72,3.19,4.06,4.8,2.51,3.31,4.89,6.69,6.83,10.29,1.95,3.59,3.65,7.31,5.03,11.19,1.34,3.9,2.42,7.94,3.27,12.12,1.68,8.37,2.42,17.28,2.96,26.55.56,9.25.95,18.85,1.9,28.6.89,9.74,2.41,19.63,4.65,29.39l.92,3.65c.31,1.22.59,2.42.98,3.68.74,2.49,1.45,4.99,2.37,7.42.81,2.37,1.72,4.7,2.7,7h6.15c-1.85-4.05-3.41-8.28-4.84-12.57-.4-1.35-.81-2.71-1.22-4.07-.4-1.35-.71-2.7-1.07-4.06-.36-1.35-.69-2.71-.98-4.08-.3-1.37-.63-2.74-.9-4.12-2.24-11.03-3.49-22.37-4.22-33.62-.77-11.25-1.1-22.45-2.32-33.28-1.22-10.82-3.5-21.28-7.82-30.78-4.29-9.51-10.46-18.06-17.84-25.46-.94-.92-1.82-1.87-2.79-2.76-.96-.88-1.93-1.77-2.89-2.65-1.94-1.76-4.04-3.41-6.04-5.12-.9-.78-1.83-1.53-2.76-2.26-1.13-.88-2.28-1.73-3.41-2.59-1.04-.78-2.08-1.57-3.11-2.35-1.05-.75-2.13-1.45-3.19-2.18-3.19-2.19-6.43-4.24-9.72-6.12-5.43-3.14-10.98-5.86-16.61-8.09-9.02-3.6-18.22-5.97-27.29-7.46-4.53-.76-9.04-1.28-13.48-1.69-2.22-.17-4.42-.37-6.61-.51-1.09-.06-2.18-.11-3.27-.17-.54-.03-1.08-.06-1.62-.08l-.31-.04c-5.67-.61-10.27-1.24-12.96-1.98l-.05,8.1Z"/><path class="cls-17" d="M361.26,130.34c3.15,0,6.31.06,9.48.13l2.37.05,5.86.23c9.6.46,19.31,1.41,28.93,3.34,9.62,1.91,19.12,4.85,28.14,8.82,7.04,3.11,13.82,6.76,20.26,10.91,1.8,1.14,3.57,2.33,5.31,3.56,1.03.66,1.98,1.41,2.96,2.13l5.84,4.38,2.8,2.32c1.18.99,2.36,1.95,3.54,2.94.69.57,1.37,1.14,2.04,1.73l2.73,2.48,1.37,1.24,1.31,1.31,2.63,2.63c.86.88,1.68,1.82,2.52,2.74,1.71,1.8,3.24,3.78,4.83,5.71,3.03,3.98,5.91,8.11,8.31,12.55,2.42,4.42,4.52,9.03,6.19,13.77,1.65,4.74,2.93,9.58,3.92,14.43,1.94,9.72,2.7,19.41,3.26,28.89.57,9.48.96,18.81,1.85,28,.84,9.2,2.25,18.24,4.28,27.13l.83,3.31c.29,1.1.54,2.22.88,3.27.64,2.14,1.24,4.29,2.03,6.37,1.43,4.23,3.28,8.31,5.22,12.34.06.12.12.23.18.35h4.82c-4.46-8.36-7.82-17.26-9.8-26.62-1.98-8.66-3.36-17.49-4.19-26.55-.88-9.05-1.26-18.31-1.83-27.86-.57-9.53-1.34-19.42-3.35-29.47-1.01-5.02-2.35-10.05-4.07-15.01-1.75-4.96-3.95-9.79-6.48-14.42-2.51-4.65-5.53-8.97-8.69-13.11-1.65-2.01-3.25-4.07-5.02-5.94-.87-.95-1.72-1.93-2.61-2.84l-2.72-2.72-1.36-1.35-1.41-1.28-2.39-2.17-.43-.39c-1.88-1.65-3.79-3.18-5.69-4.77l-2.86-2.36-2.98-2.24-2.98-2.24c-1-.74-1.98-1.51-3.04-2.18-1.01-.72-2.04-1.42-3.07-2.12-7.29-4.87-15.09-9.17-23.23-12.76-9.3-4.1-19.12-7.13-29.01-9.1-9.9-1.99-19.83-2.95-29.57-3.41l-5.93-.24-2.4-.05c-3.2-.07-6.4-.13-9.55-.13l-.03,4.27Z"/><path class="cls-18" d="M361.3,124.07c2.26.01,4.03,5.47,3.95,12.19-.08,6.71-1.91,12.16-4.09,12.15-2.18-.01-3.94-5.47-3.95-12.19,0-6.72,1.82-12.16,4.09-12.15Z"/><path class="cls-7" d="M480.48,199.01c2.05,2.1,4.98,6.97,6.9,10.54l14.55,13.36c4.77,16.39,11.36,33.54,20.27,45.41l-1.33-24.16-15.3-32.78-19.28-13.11-5.81.74Z"/><path class="cls-19" d="M499.64,179.32c-4.04-1.67-12.19-3.48-12.19-3.48,0,0-14.37-7.54-16.57-7.45-2.25.09-15.39,4.66-9.63,15.64,6.46,12.72,24.84,17.94,24.84,17.94,0,0,17.71,17.84,19.36,20.14,1.07,1.49,11.67,29.39,16.84,36.04,3.82,4.9,19.95,13.48,32.44,18.35l-13.35-70.64c-4.53-3.14-32.48-22.69-41.74-26.53Z"/><path class="cls-21" d="M471.2,183.98c-.13,0-.27-.04-.38-.12l-8.33-5.69c-.21-.14-.32-.39-.29-.64.68-5.26,6.58-8.24,9.55-8.36.1,0,.22.02.31.06l9.48,4.45c.24.11.39.35.39.62,0,.26-.16.5-.4.61-3.31,1.48-7.84,5.04-9.73,8.71-.09.17-.25.3-.43.34-.05.01-.11.02-.17.02ZM463.6,177.3l7.37,5.03c1.94-3.28,5.58-6.31,8.74-8.03l-8.07-3.79c-2.56.2-7.25,2.82-8.04,6.78Z"/><path class="cls-21" d="M487.83,192.86c-.07,0-.14,0-.21-.03-.41-.11-.65-.54-.54-.95,1.86-6.67,5.16-10.76,9.81-12.14.41-.12.84.11.96.52.12.41-.11.84-.52.96-4.11,1.22-7.06,4.95-8.77,11.08-.09.34-.41.56-.74.56Z"/><path class="cls-21" d="M539.59,204.73c-.15,0-.29-.04-.43-.13-.08-.05-7.75-5.15-17.11-11.28-.36-.23-.46-.71-.22-1.07.23-.36.71-.46,1.07-.22,9.37,6.14,17.05,11.24,17.12,11.29.36.24.45.71.21,1.07-.15.22-.39.34-.64.34Z"/><path class="cls-2" d="M360.94,127.17c1.72,0,3.11,4,3.11,8.93s-1.39,8.93-3.11,8.93-3.11-4-3.11-8.93,1.39-8.93,3.11-8.93Z"/><path class="cls-12" d="M338.28,144.36h22.58c1.51,0,2.73-3.7,2.73-8.25s-1.22-8.25-2.73-8.25h-22.58v16.51Z"/><path class="cls-16" d="M363.48,138.39c-.23,2.38-.8,4.33-1.53,5.3h-23.66v-5.5c8.86,2.41,14.73,2.42,25.2.2Z"/><path class="cls-8" d="M338.28,132.11h24.96c-.21-1.17-.52-2.16-.89-2.9h-24.07v2.9Z"/><ellipse class="cls-1" cx="338.28" cy="136.1" rx="2.73" ry="8.25"/><path class="cls-5" d="M338.22,130.81c.88,0,1.6,2.37,1.6,5.3s-.72,5.3-1.6,5.3-1.6-2.37-1.6-5.3.72-5.3,1.6-5.3Z"/><path class="cls-13" d="M307.76,125.36l.88.55c4.35,2.67,9,4.89,13.87,6.47,4.87,1.57,9.98,2.51,15.13,2.5h.65c.14,0,.24-.33.23-.74-.01-.41-.13-.74-.26-.74h-.63c-9.97-.02-19.73-3.54-28.22-8.74l-.87-.54-.8,1.25Z"/><path class="cls-22" d="M308.09,124.83l-.25.39.88.55c4.34,2.67,8.98,4.88,13.84,6.45,4.86,1.56,9.95,2.5,15.08,2.49h.8c.05-.11.08-.28.08-.47h-.88c-5.07,0-10.12-.92-14.93-2.47-4.82-1.56-9.42-3.75-13.74-6.4l-.88-.54Z"/><path class="cls-23" d="M308.35,124.43l.87.54c8.53,5.24,18.36,8.78,28.42,8.8h.84c-.02-.11-.05-.19-.09-.26h-.76c-10-.02-19.78-3.54-28.28-8.76l-.87-.54-.14.22Z"/><path class="cls-24" d="M308.55,124.11c.11.07.03.41-.19.75-.22.35-.49.57-.61.5-.12-.07-.03-.41.19-.75.22-.34.49-.57.61-.5Z"/><path class="cls-13" d="M308.4,150.44h1.09c2.82-.07,5.48-1.08,7.86-2.35,2.39-1.28,4.58-2.84,6.73-4.39,2.15-1.56,4.26-3.12,6.49-4.44,2.22-1.31,4.6-2.4,7.07-2.65l.59-.07c.12-.01.22-.36.21-.77,0-.41-.13-.73-.28-.71l-.67.07c-2.81.29-5.37,1.48-7.68,2.85-2.32,1.38-4.47,2.97-6.61,4.52-2.14,1.55-4.28,3.06-6.56,4.28-2.27,1.21-4.7,2.12-7.2,2.17h-.97s-.09,1.49-.09,1.49Z"/><path class="cls-22" d="M308.44,149.81l-.03.47h1.08c2.79-.07,5.42-1.06,7.79-2.33,2.38-1.28,4.56-2.83,6.71-4.38,2.15-1.56,4.27-3.12,6.51-4.45,2.23-1.32,4.63-2.42,7.14-2.67l.74-.08c.04-.12.07-.29.07-.48l-.86.09c-2.62.26-5.07,1.4-7.33,2.73-2.27,1.35-4.4,2.92-6.54,4.48-2.14,1.55-4.31,3.09-6.66,4.35-2.33,1.25-4.9,2.21-7.58,2.27h-1.04Z"/><path class="cls-23" d="M308.46,149.34h1c2.58-.06,5.07-.99,7.37-2.22,2.31-1.24,4.46-2.76,6.6-4.31,2.14-1.55,4.28-3.14,6.58-4.5,2.29-1.35,4.8-2.52,7.52-2.79l.87-.09c-.02-.1-.05-.19-.09-.25l-.81.09c-2.79.28-5.32,1.47-7.63,2.83-2.32,1.38-4.46,2.96-6.6,4.51-2.14,1.55-4.29,3.07-6.57,4.29-2.27,1.22-4.73,2.13-7.25,2.19h-.98s-.02.26-.02.26Z"/><path class="cls-24" d="M308.49,148.96c.13,0,.21.33.2.74-.01.41-.14.74-.29.74-.15,0-.23-.33-.2-.74.03-.41.16-.74.29-.74Z"/><path class="cls-13" d="M301.22,131.01l1,.35c2.92.98,5.94,1.51,8.95,1.84,3.02.33,6.04.45,9.06.46,6.03.03,12.04-.39,18-.59l.63-.02c.13,0,.24-.34.23-.75,0-.41-.13-.74-.26-.73l-.64.02c-6.02.21-11.99.62-17.95.59-2.98-.02-5.96-.14-8.9-.46-2.94-.32-5.87-.84-8.63-1.77l-.95-.33-.53,1.39Z"/><path class="cls-22" d="M301.44,130.43l-.17.44.99.34c2.9.98,5.91,1.5,8.92,1.83,3.01.33,6.03.45,9.04.46,6.02.03,12.03-.39,18-.59l.78-.02c.05-.11.07-.28.08-.47l-.88.03c-5.99.21-11.98.62-17.98.59-3-.02-6-.14-8.99-.46-2.98-.33-5.96-.85-8.82-1.81l-.98-.34Z"/><path class="cls-23" d="M301.61,129.98l.96.33c2.81.94,5.76,1.46,8.72,1.79,2.96.32,5.95.44,8.94.46,5.98.03,11.96-.39,17.97-.59l.85-.03c-.02-.1-.05-.19-.09-.26l-.78.02c-6.01.21-11.98.62-17.96.59-2.98-.02-5.96-.14-8.92-.46-2.95-.32-5.88-.84-8.66-1.78l-.95-.33-.09.24Z"/><path class="cls-24" d="M301.75,129.63c.12.04.11.39-.03.77-.14.38-.36.66-.5.61-.13-.05-.12-.39.03-.77.15-.38.37-.66.5-.61Z"/><path class="cls-13" d="M300.19,141.84l1.03.19c6.18,1.07,12.42.77,18.54.26,6.13-.51,12.22-1.43,18.28-1.71l.63-.03c.13,0,.23-.34.22-.75,0-.41-.13-.74-.27-.73l-.65.03c-6.2.3-12.26,1.21-18.35,1.72-6.07.51-12.21.79-18.15-.24l-.99-.18-.31,1.45Z"/><path class="cls-22" d="M300.32,141.23l-.1.46,1.03.19c6.15,1.07,12.38.77,18.5.26,6.13-.51,12.21-1.43,18.29-1.72l.78-.03c.04-.11.07-.28.08-.47l-.88.04c-6.12.29-12.2,1.21-18.31,1.72-6.1.51-12.3.8-18.37-.25l-1.02-.19Z"/><path class="cls-23" d="M300.42,140.77l1,.18c6,1.04,12.17.76,18.25.25,6.1-.51,12.17-1.42,18.33-1.72l.86-.04c-.02-.1-.05-.19-.09-.26l-.78.03c-6.19.3-12.25,1.21-18.35,1.72-6.07.51-12.23.79-18.18-.24l-1-.18-.05.25Z"/><path class="cls-24" d="M300.5,140.39c.13.02.17.37.09.77-.08.4-.26.71-.4.68-.14-.03-.18-.37-.09-.77.09-.4.27-.71.4-.68Z"/><path class="cls-13" d="M303.66,136.86l1.03.1c11.24,1.07,22.5,1.63,33.76,2.11l.64.03c.14,0,.26-.32.28-.73.02-.41-.08-.75-.21-.75l-.64-.03c-11.25-.48-22.49-1.04-33.68-2.11l-1.02-.1-.15,1.48Z"/><path class="cls-22" d="M303.73,136.24l-.05.47,1.03.1c11.23,1.07,22.49,1.63,33.75,2.11l.79.03c.05-.11.09-.27.11-.46l-.88-.04c-11.25-.48-22.51-1.04-33.72-2.11l-1.03-.1Z"/><path class="cls-23" d="M303.77,135.76l1.02.1c11.2,1.07,22.45,1.63,33.7,2.11l.85.04c-.01-.11-.04-.2-.07-.26l-.77-.03c-11.25-.48-22.49-1.04-33.69-2.11l-1.02-.1-.03.26Z"/><path class="cls-24" d="M303.81,135.38c.13.01.21.35.17.76-.04.41-.18.73-.32.71-.13-.01-.21-.35-.17-.76.04-.41.18-.73.32-.71Z"/><path class="cls-13" d="M310.13,131.19l.74.79c1.73,1.79,3.98,3.07,6.37,3.71,2.39.65,4.85.76,7.24.68,4.8-.18,9.46-1.12,14.1-1.32l.63-.03c.13,0,.23-.34.22-.75,0-.41-.13-.74-.27-.73l-.65.03c-4.8.21-9.45,1.15-14.09,1.32-2.31.08-4.62-.03-6.79-.63-2.17-.58-4.15-1.71-5.7-3.32l-.67-.71-1.13.96Z"/><path class="cls-22" d="M310.6,130.78l-.36.3.73.78c1.71,1.77,3.93,3.04,6.3,3.67,2.36.65,4.81.76,7.19.68,4.79-.18,9.44-1.12,14.1-1.32l.78-.04c.04-.12.07-.28.08-.47l-.87.04c-4.71.21-9.36,1.15-14.09,1.32-2.36.08-4.76-.03-7.05-.66-2.29-.61-4.43-1.83-6.09-3.55l-.71-.76Z"/><path class="cls-23" d="M310.97,130.48l.69.73c1.6,1.65,3.65,2.82,5.87,3.42,2.23.61,4.58.72,6.91.64,4.68-.17,9.33-1.11,14.09-1.32l.86-.04c-.02-.1-.05-.19-.09-.26l-.78.04c-4.78.21-9.44,1.15-14.09,1.32-2.32.08-4.64-.03-6.83-.63-2.19-.59-4.19-1.73-5.76-3.35l-.67-.72-.2.17Z"/><path class="cls-24" d="M311.26,130.23c.09.09-.09.39-.4.66-.31.27-.64.41-.73.3-.1-.11.08-.4.4-.66.32-.26.65-.39.73-.3Z"/><path class="cls-13" d="M309.46,146.11l.96-.39c4.62-1.91,9.21-3.86,13.91-5.46,4.69-1.59,9.52-2.85,14.4-3.11l.62-.03c.13,0,.23-.35.22-.75,0-.41-.13-.74-.27-.73l-.65.03c-5.11.28-10.05,1.58-14.81,3.19-4.77,1.62-9.39,3.58-14,5.49l-.95.39.56,1.37Z"/><path class="cls-22" d="M309.22,145.53l.18.43.95-.39c4.62-1.91,9.21-3.86,13.92-5.46,4.69-1.59,9.54-2.86,14.45-3.12l.77-.04c.04-.12.07-.28.08-.47l-.87.05c-4.98.27-9.86,1.55-14.57,3.15-4.73,1.6-9.33,3.56-13.95,5.47l-.95.39Z"/><path class="cls-23" d="M309.04,145.09l.95-.39c4.61-1.91,9.22-3.87,13.97-5.48,4.74-1.61,9.65-2.9,14.7-3.17l.86-.05c-.02-.1-.05-.19-.09-.26l-.79.04c-5.09.28-10.02,1.57-14.77,3.18-4.76,1.62-9.38,3.58-13.99,5.49l-.95.39.1.24Z"/><path class="cls-24" d="M308.9,144.74c.12-.05.35.21.51.59.16.38.18.73.05.78-.13.05-.35-.21-.51-.59-.15-.38-.18-.73-.05-.78Z"/><polygon class="cls-11" points="292.99 156.6 268.96 200.61 260.38 192.24 236.59 220.39 257.39 175.2 268.87 183.47 292.99 156.6"/><polygon class="cls-11" points="360.46 80.46 336.83 110.41 331.46 103.03 310.03 121.12 331.39 89.87 338.94 97.54 360.46 80.46"/><polygon class="cls-11" points="375.51 105.31 364.84 112.45 363.88 109.53 355.15 113.1 365.22 105.31 366.85 108.55 375.51 105.31"/><polygon class="cls-11" points="369.68 176.18 353.61 172.12 355.59 168.69 344.61 163.4 360.79 166.32 359.09 170.68 369.68 176.18"/><polygon class="cls-11" points="283.01 83.87 274.87 73.95 277.68 72.72 273.27 64.37 282.01 73.64 278.94 75.57 283.01 83.87"/><polygon class="cls-11" points="302.86 198.53 297.1 182.47 301.17 182.18 299.39 169.76 306.18 185.27 301.48 186.32 302.86 198.53"/><polygon class="cls-11" points="237.52 112.97 224.83 110.99 226.11 108.2 217.26 104.91 229.95 106 228.95 109.49 237.52 112.97"/><polygon class="cls-11" points="236.59 169.08 227.47 178.11 225.98 175.43 218.08 180.59 226.49 171.03 228.7 173.9 236.59 169.08"/><polygon class="cls-11" points="308.19 27.87 316.85 81.6 303.92 80.13 302.24 120.1 290.02 67.5 305.37 66.97 308.19 27.87"/><polygon class="cls-11" points="240.96 75.68 272.76 94.32 266.41 100.44 286.56 118.55 253.82 102.26 260.17 94.01 240.96 75.68"/><polygon class="cls-11" points="308.07 154.87 350.53 199.61 337.5 206.5 361.5 244.97 316.41 203.58 330.44 193.26 308.07 154.87"/></svg>